<svg width="24" height="24" viewBox="0 0 24 24" fill="none" xmlns="http://www.w3.org/2000/svg">
<path d="M12 0.296021C5.37 0.296021 0 5.66602 0 12.296C0 17.606 3.435 22.091 8.205 23.681C8.805 23.786 9.03 23.426 9.03 23.111C9.03 22.826 9.015 21.881 9.015 20.876C6 21.431 5.22 20.141 4.98 19.466C4.845 19.121 4.26 18.056 3.75 17.771C3.33 17.546 2.73 16.991 3.735 16.976C4.68 16.961 5.355 17.846 5.58 18.206C6.66 20.021 8.385 19.511 9.075 19.196C9.18 18.416 9.495 17.891 9.84 17.591C7.17 17.291 4.38 16.256 4.38 11.666C4.38 10.361 4.845 9.28102 5.61 8.44102C5.49 8.14102 5.07 6.91102 5.73 5.26102C5.73 5.26102 6.735 4.94602 9.03 6.49102C9.99 6.22102 11.01 6.08602 12.03 6.08602C13.05 6.08602 14.07 6.22102 15.03 6.49102C17.325 4.93102 18.33 5.26102 18.33 5.26102C18.99 6.91102 18.57 8.14102 18.45 8.44102C19.215 9.28102 19.68 10.346 19.68 11.666C19.68 16.271 16.875 17.291 14.205 17.591C14.64 17.966 15.015 18.686 15.015 19.811C15.015 21.416 15 22.706 15 23.111C15 23.426 15.225 23.801 15.825 23.681C18.2073 22.877 20.2775 21.346 21.744 19.3037C23.2106 17.2613 23.9996 14.8104 24 12.296C24 5.66602 18.63 0.296021 12 0.296021Z" fill="white"/>
</svg>
