<svg width="96" height="96" viewBox="0 0 96 96" fill="none" xmlns="http://www.w3.org/2000/svg">
<g filter="url(#filter0_bd_95_236)">
<path d="M48 32C51.2604 32 51.6672 32.012 52.9464 32.072C54.2244 32.132 55.0944 32.3324 55.86 32.63C56.652 32.9348 57.3192 33.3476 57.9864 34.0136C58.5966 34.6135 59.0687 35.3391 59.37 36.14C59.6664 36.9044 59.868 37.7756 59.928 39.0536C59.9844 40.3328 60 40.7396 60 44C60 47.2604 59.988 47.6672 59.928 48.9464C59.868 50.2244 59.6664 51.0944 59.37 51.86C59.0696 52.6613 58.5973 53.3871 57.9864 53.9864C57.3864 54.5964 56.6608 55.0685 55.86 55.37C55.0956 55.6664 54.2244 55.868 52.9464 55.928C51.6672 55.9844 51.2604 56 48 56C44.7396 56 44.3328 55.988 43.0536 55.928C41.7756 55.868 40.9056 55.6664 40.14 55.37C39.3388 55.0694 38.613 54.5971 38.0136 53.9864C37.4033 53.3866 36.9311 52.661 36.63 51.86C36.3324 51.0956 36.132 50.2244 36.072 48.9464C36.0156 47.6672 36 47.2604 36 44C36 40.7396 36.012 40.3328 36.072 39.0536C36.132 37.7744 36.3324 36.9056 36.63 36.14C36.9303 35.3386 37.4026 34.6128 38.0136 34.0136C38.6132 33.4031 39.3389 32.9309 40.14 32.63C40.9056 32.3324 41.7744 32.132 43.0536 32.072C44.3328 32.0156 44.7396 32 48 32ZM48 38C46.4087 38 44.8826 38.6321 43.7574 39.7574C42.6321 40.8826 42 42.4087 42 44C42 45.5913 42.6321 47.1174 43.7574 48.2426C44.8826 49.3679 46.4087 50 48 50C49.5913 50 51.1174 49.3679 52.2426 48.2426C53.3679 47.1174 54 45.5913 54 44C54 42.4087 53.3679 40.8826 52.2426 39.7574C51.1174 38.6321 49.5913 38 48 38ZM55.8 37.7C55.8 37.3022 55.642 36.9206 55.3607 36.6393C55.0794 36.358 54.6978 36.2 54.3 36.2C53.9022 36.2 53.5206 36.358 53.2393 36.6393C52.958 36.9206 52.8 37.3022 52.8 37.7C52.8 38.0978 52.958 38.4794 53.2393 38.7607C53.5206 39.042 53.9022 39.2 54.3 39.2C54.6978 39.2 55.0794 39.042 55.3607 38.7607C55.642 38.4794 55.8 38.0978 55.8 37.7ZM48 40.4C48.9548 40.4 49.8705 40.7793 50.5456 41.4544C51.2207 42.1295 51.6 43.0452 51.6 44C51.6 44.9548 51.2207 45.8705 50.5456 46.5456C49.8705 47.2207 48.9548 47.6 48 47.6C47.0452 47.6 46.1295 47.2207 45.4544 46.5456C44.7793 45.8705 44.4 44.9548 44.4 44C44.4 43.0452 44.7793 42.1295 45.4544 41.4544C46.1295 40.7793 47.0452 40.4 48 40.4Z" fill="white"/>
</g>
<defs>
<filter id="filter0_bd_95_236" x="-47.1" y="-51.1" width="190.2" height="190.2" filterUnits="userSpaceOnUse" color-interpolation-filters="sRGB">
<feFlood flood-opacity="0" result="BackgroundImageFix"/>
<feGaussianBlur in="BackgroundImageFix" stdDeviation="41.55"/>
<feComposite in2="SourceAlpha" operator="in" result="effect1_backgroundBlur_95_236"/>
<feColorMatrix in="SourceAlpha" type="matrix" values="0 0 0 0 0 0 0 0 0 0 0 0 0 0 0 0 0 0 127 0" result="hardAlpha"/>
<feMorphology radius="8" operator="dilate" in="SourceAlpha" result="effect2_dropShadow_95_236"/>
<feOffset dy="4"/>
<feGaussianBlur stdDeviation="13.75"/>
<feComposite in2="hardAlpha" operator="out"/>
<feColorMatrix type="matrix" values="0 0 0 0 0 0 0 0 0 0 0 0 0 0 0 0 0 0 0.31 0"/>
<feBlend mode="normal" in2="effect1_backgroundBlur_95_236" result="effect2_dropShadow_95_236"/>
<feBlend mode="normal" in="SourceGraphic" in2="effect2_dropShadow_95_236" result="shape"/>
</filter>
</defs>
</svg>
