<svg width="136" height="135" viewBox="0 0 136 135" fill="none" xmlns="http://www.w3.org/2000/svg">
<path fill-rule="evenodd" clip-rule="evenodd" d="M60.2656 134.312C26.8581 130.475 0.916992 102.106 0.916992 67.6719C0.916992 30.6218 30.9502 0.588562 68.0003 0.588562C105.05 0.588562 135.084 30.6218 135.084 67.6719C135.084 102.267 113.06 99.4224 94.2567 96.9873C83.4027 95.5853 73.6286 94.3241 69.7579 100.462C67.1081 104.662 69.9726 109.894 73.481 113.403C74.5232 114.445 75.3499 115.682 75.9139 117.044C76.478 118.405 76.7683 119.865 76.7683 121.339C76.7683 122.812 76.478 124.272 75.9139 125.633C75.3499 126.995 74.5232 128.232 73.481 129.275C69.9726 132.783 65.1962 134.883 60.2656 134.312ZM61.8622 34.1302C61.8622 36.799 60.8021 39.3584 58.915 41.2455C57.0279 43.1326 54.4684 44.1927 51.7997 44.1927C49.131 44.1927 46.5715 43.1326 44.6844 41.2455C42.7974 39.3584 41.7372 36.799 41.7372 34.1302C41.7372 31.4615 42.7974 28.9021 44.6844 27.015C46.5715 25.1279 49.131 24.0677 51.7997 24.0677C54.4684 24.0677 57.0279 25.1279 58.915 27.015C60.8021 28.9021 61.8622 31.4615 61.8622 34.1302ZM31.1045 74.3802C33.7732 74.3802 36.3327 73.3201 38.2198 71.433C40.1068 69.5459 41.167 66.9865 41.167 64.3177C41.167 61.649 40.1068 59.0896 38.2198 57.2025C36.3327 55.3154 33.7732 54.2552 31.1045 54.2552C28.4358 54.2552 25.8763 55.3154 23.9892 57.2025C22.1021 59.0896 21.042 61.649 21.042 64.3177C21.042 66.9865 22.1021 69.5459 23.9892 71.433C25.8763 73.3201 28.4358 74.3802 31.1045 74.3802ZM104.896 74.3802C107.565 74.3802 110.124 73.3201 112.011 71.433C113.899 69.5459 114.959 66.9865 114.959 64.3177C114.959 61.649 113.899 59.0896 112.011 57.2025C110.124 55.3154 107.565 54.2552 104.896 54.2552C102.227 54.2552 99.668 55.3154 97.7809 57.2025C95.8938 59.0896 94.8337 61.649 94.8337 64.3177C94.8337 66.9865 95.8938 69.5459 97.7809 71.433C99.668 73.3201 102.227 74.3802 104.896 74.3802ZM84.7712 44.1927C86.0926 44.1927 87.4011 43.9325 88.6219 43.4268C89.8428 42.9211 90.952 42.1799 91.8864 41.2455C92.8208 40.3111 93.562 39.2018 94.0677 37.981C94.5734 36.7601 94.8337 35.4517 94.8337 34.1302C94.8337 32.8088 94.5734 31.5003 94.0677 30.2795C93.562 29.0586 92.8208 27.9494 91.8864 27.015C90.952 26.0806 89.8428 25.3394 88.6219 24.8337C87.4011 24.328 86.0926 24.0677 84.7712 24.0677C82.1024 24.0677 79.543 25.1279 77.6559 27.015C75.7688 28.9021 74.7087 31.4615 74.7087 34.1302C74.7087 36.799 75.7688 39.3584 77.6559 41.2455C79.543 43.1326 82.1024 44.1927 84.7712 44.1927Z" fill="black"/>
<path fill-rule="evenodd" clip-rule="evenodd" d="M60.2656 134.312C26.8581 130.475 0.916992 102.106 0.916992 67.6719C0.916992 30.6218 30.9502 0.588562 68.0003 0.588562C105.05 0.588562 135.084 30.6218 135.084 67.6719C135.084 102.267 113.06 99.4224 94.2567 96.9873C83.4027 95.5853 73.6286 94.3241 69.7579 100.462C67.1081 104.662 69.9726 109.894 73.481 113.403C74.5232 114.445 75.3499 115.682 75.9139 117.044C76.478 118.405 76.7683 119.865 76.7683 121.339C76.7683 122.812 76.478 124.272 75.9139 125.633C75.3499 126.995 74.5232 128.232 73.481 129.275C69.9726 132.783 65.1962 134.883 60.2656 134.312ZM61.8622 34.1302C61.8622 36.799 60.8021 39.3584 58.915 41.2455C57.0279 43.1326 54.4684 44.1927 51.7997 44.1927C49.131 44.1927 46.5715 43.1326 44.6844 41.2455C42.7974 39.3584 41.7372 36.799 41.7372 34.1302C41.7372 31.4615 42.7974 28.9021 44.6844 27.015C46.5715 25.1279 49.131 24.0677 51.7997 24.0677C54.4684 24.0677 57.0279 25.1279 58.915 27.015C60.8021 28.9021 61.8622 31.4615 61.8622 34.1302ZM31.1045 74.3802C33.7732 74.3802 36.3327 73.3201 38.2198 71.433C40.1068 69.5459 41.167 66.9865 41.167 64.3177C41.167 61.649 40.1068 59.0896 38.2198 57.2025C36.3327 55.3154 33.7732 54.2552 31.1045 54.2552C28.4358 54.2552 25.8763 55.3154 23.9892 57.2025C22.1021 59.0896 21.042 61.649 21.042 64.3177C21.042 66.9865 22.1021 69.5459 23.9892 71.433C25.8763 73.3201 28.4358 74.3802 31.1045 74.3802ZM104.896 74.3802C107.565 74.3802 110.124 73.3201 112.011 71.433C113.899 69.5459 114.959 66.9865 114.959 64.3177C114.959 61.649 113.899 59.0896 112.011 57.2025C110.124 55.3154 107.565 54.2552 104.896 54.2552C102.227 54.2552 99.668 55.3154 97.7809 57.2025C95.8938 59.0896 94.8337 61.649 94.8337 64.3177C94.8337 66.9865 95.8938 69.5459 97.7809 71.433C99.668 73.3201 102.227 74.3802 104.896 74.3802ZM84.7712 44.1927C86.0926 44.1927 87.4011 43.9325 88.6219 43.4268C89.8428 42.9211 90.952 42.1799 91.8864 41.2455C92.8208 40.3111 93.562 39.2018 94.0677 37.981C94.5734 36.7601 94.8337 35.4517 94.8337 34.1302C94.8337 32.8088 94.5734 31.5003 94.0677 30.2795C93.562 29.0586 92.8208 27.9494 91.8864 27.015C90.952 26.0806 89.8428 25.3394 88.6219 24.8337C87.4011 24.328 86.0926 24.0677 84.7712 24.0677C82.1024 24.0677 79.543 25.1279 77.6559 27.015C75.7688 28.9021 74.7087 31.4615 74.7087 34.1302C74.7087 36.799 75.7688 39.3584 77.6559 41.2455C79.543 43.1326 82.1024 44.1927 84.7712 44.1927Z" fill="url(#paint0_linear_88_233)"/>
<defs>
<linearGradient id="paint0_linear_88_233" x1="0.916992" y1="67.497" x2="135.084" y2="67.497" gradientUnits="userSpaceOnUse">
<stop stop-color="#FF7A00"/>
<stop offset="1" stop-color="#FFE600"/>
</linearGradient>
</defs>
</svg>
