<svg width="136" height="135" viewBox="0 0 136 135" fill="none" xmlns="http://www.w3.org/2000/svg">
<path d="M14.3331 60.9636C16.0429 60.9655 17.6874 61.6202 18.9307 62.7939C20.174 63.9677 20.9222 65.5719 21.0224 67.2788C21.1226 68.9856 20.5673 70.6664 19.4699 71.9775C18.3724 73.2887 16.8158 74.1313 15.1179 74.3333L14.3331 74.3802H7.62473C5.91491 74.3783 4.27035 73.7236 3.02705 72.5499C1.78375 71.3761 1.03557 69.7719 0.935367 68.065C0.835164 66.3582 1.3905 64.6774 2.48792 63.3663C3.58534 62.0551 5.142 61.2125 6.83985 61.0105L7.62473 60.9636H14.3331ZM67.9997 0.588562C69.6428 0.588779 71.2287 1.19202 72.4566 2.28386C73.6844 3.3757 74.4689 4.88021 74.6611 6.51202L74.7081 7.2969V14.0052C74.7062 15.715 74.0515 17.3596 72.8777 18.6029C71.7039 19.8462 70.0997 20.5944 68.3929 20.6946C66.686 20.7948 65.0053 20.2395 63.6941 19.142C62.3829 18.0446 61.5403 16.488 61.3383 14.7901L61.2914 14.0052V7.2969C61.2914 5.51774 61.9982 3.81144 63.2562 2.55339C64.5143 1.29533 66.2206 0.588562 67.9997 0.588562ZM128.375 60.9636C130.085 60.9655 131.729 61.6202 132.972 62.7939C134.216 63.9677 134.964 65.5719 135.064 67.2788C135.164 68.9856 134.609 70.6664 133.512 71.9775C132.414 73.2887 130.857 74.1313 129.16 74.3333L128.375 74.3802H121.666C119.957 74.3783 118.312 73.7236 117.069 72.5499C115.825 71.3761 115.077 69.7719 114.977 68.065C114.877 66.3582 115.432 64.6774 116.53 63.3663C117.627 62.0551 119.184 61.2125 120.882 61.0105L121.666 60.9636H128.375ZM20.3236 19.9958C21.4787 18.8408 23.0156 18.1469 24.6459 18.0444C26.2762 17.9419 27.8879 18.4378 29.1786 19.439L29.8092 19.9958L34.505 24.6916C35.7081 25.8988 36.4067 27.5187 36.4587 29.2223C36.5107 30.9259 35.9123 32.5854 34.7851 33.8638C33.6579 35.1421 32.0863 35.9435 30.3896 36.1052C28.6929 36.2668 26.9983 35.7765 25.65 34.734L25.0194 34.1772L20.3236 29.4814C19.066 28.2234 18.3595 26.5174 18.3595 24.7386C18.3595 22.9598 19.066 21.2538 20.3236 19.9958ZM106.19 19.9958C107.397 18.7926 109.017 18.0941 110.721 18.0421C112.425 17.9901 114.084 18.5885 115.362 19.7157C116.641 20.8429 117.442 22.4145 117.604 24.1112C117.765 25.8079 117.275 27.5025 116.233 28.8508L115.676 29.4814L110.98 34.1772C109.773 35.3803 108.153 36.0788 106.449 36.1308C104.746 36.1829 103.086 35.5845 101.808 34.4573C100.529 33.33 99.7281 31.7585 99.5665 30.0618C99.4048 28.3651 99.8951 26.6705 100.938 25.3222L101.494 24.6916L106.19 19.9958ZM81.4164 107.922C83.1955 107.922 84.9018 108.629 86.1599 109.887C87.418 111.145 88.1247 112.851 88.1247 114.63C88.1247 119.968 86.0044 125.087 82.2302 128.861C78.4561 132.635 73.3372 134.755 67.9997 134.755C62.6622 134.755 57.5434 132.635 53.7692 128.861C49.995 125.087 47.8747 119.968 47.8747 114.63C47.8749 112.987 48.4782 111.401 49.57 110.173C50.6619 108.946 52.1664 108.161 53.7982 107.969L54.5831 107.922H81.4164ZM67.9997 27.4219C76.4475 27.4219 84.6811 30.0799 91.5343 35.0194C98.3875 39.9589 103.513 46.9295 106.184 54.9437C108.856 62.958 108.938 71.6096 106.419 79.6731C103.9 87.7366 98.9079 94.8032 92.1497 99.8719C91.2251 100.566 90.1367 101.01 88.9901 101.16L88.1247 101.214H47.8747C46.4232 101.214 45.0109 100.743 43.8497 99.8719C37.0915 94.8032 32.0994 87.7366 29.5806 79.6731C27.0617 71.6096 27.1438 62.958 29.8152 54.9437C32.4866 46.9295 37.612 39.9589 44.4651 35.0194C51.3183 30.0799 59.552 27.4219 67.9997 27.4219Z" fill="black"/>
<path d="M14.3331 60.9636C16.0429 60.9655 17.6874 61.6202 18.9307 62.7939C20.174 63.9677 20.9222 65.5719 21.0224 67.2788C21.1226 68.9856 20.5673 70.6664 19.4699 71.9775C18.3724 73.2887 16.8158 74.1313 15.1179 74.3333L14.3331 74.3802H7.62473C5.91491 74.3783 4.27035 73.7236 3.02705 72.5499C1.78375 71.3761 1.03557 69.7719 0.935367 68.065C0.835164 66.3582 1.3905 64.6774 2.48792 63.3663C3.58534 62.0551 5.142 61.2125 6.83985 61.0105L7.62473 60.9636H14.3331ZM67.9997 0.588562C69.6428 0.588779 71.2287 1.19202 72.4566 2.28386C73.6844 3.3757 74.4689 4.88021 74.6611 6.51202L74.7081 7.2969V14.0052C74.7062 15.715 74.0515 17.3596 72.8777 18.6029C71.7039 19.8462 70.0997 20.5944 68.3929 20.6946C66.686 20.7948 65.0053 20.2395 63.6941 19.142C62.3829 18.0446 61.5403 16.488 61.3383 14.7901L61.2914 14.0052V7.2969C61.2914 5.51774 61.9982 3.81144 63.2562 2.55339C64.5143 1.29533 66.2206 0.588562 67.9997 0.588562ZM128.375 60.9636C130.085 60.9655 131.729 61.6202 132.972 62.7939C134.216 63.9677 134.964 65.5719 135.064 67.2788C135.164 68.9856 134.609 70.6664 133.512 71.9775C132.414 73.2887 130.857 74.1313 129.16 74.3333L128.375 74.3802H121.666C119.957 74.3783 118.312 73.7236 117.069 72.5499C115.825 71.3761 115.077 69.7719 114.977 68.065C114.877 66.3582 115.432 64.6774 116.53 63.3663C117.627 62.0551 119.184 61.2125 120.882 61.0105L121.666 60.9636H128.375ZM20.3236 19.9958C21.4787 18.8408 23.0156 18.1469 24.6459 18.0444C26.2762 17.9419 27.8879 18.4378 29.1786 19.439L29.8092 19.9958L34.505 24.6916C35.7081 25.8988 36.4067 27.5187 36.4587 29.2223C36.5107 30.9259 35.9123 32.5854 34.7851 33.8638C33.6579 35.1421 32.0863 35.9435 30.3896 36.1052C28.6929 36.2668 26.9983 35.7765 25.65 34.734L25.0194 34.1772L20.3236 29.4814C19.066 28.2234 18.3595 26.5174 18.3595 24.7386C18.3595 22.9598 19.066 21.2538 20.3236 19.9958ZM106.19 19.9958C107.397 18.7926 109.017 18.0941 110.721 18.0421C112.425 17.9901 114.084 18.5885 115.362 19.7157C116.641 20.8429 117.442 22.4145 117.604 24.1112C117.765 25.8079 117.275 27.5025 116.233 28.8508L115.676 29.4814L110.98 34.1772C109.773 35.3803 108.153 36.0788 106.449 36.1308C104.746 36.1829 103.086 35.5845 101.808 34.4573C100.529 33.33 99.7281 31.7585 99.5665 30.0618C99.4048 28.3651 99.8951 26.6705 100.938 25.3222L101.494 24.6916L106.19 19.9958ZM81.4164 107.922C83.1955 107.922 84.9018 108.629 86.1599 109.887C87.418 111.145 88.1247 112.851 88.1247 114.63C88.1247 119.968 86.0044 125.087 82.2302 128.861C78.4561 132.635 73.3372 134.755 67.9997 134.755C62.6622 134.755 57.5434 132.635 53.7692 128.861C49.995 125.087 47.8747 119.968 47.8747 114.63C47.8749 112.987 48.4782 111.401 49.57 110.173C50.6619 108.946 52.1664 108.161 53.7982 107.969L54.5831 107.922H81.4164ZM67.9997 27.4219C76.4475 27.4219 84.6811 30.0799 91.5343 35.0194C98.3875 39.9589 103.513 46.9295 106.184 54.9437C108.856 62.958 108.938 71.6096 106.419 79.6731C103.9 87.7366 98.9079 94.8032 92.1497 99.8719C91.2251 100.566 90.1367 101.01 88.9901 101.16L88.1247 101.214H47.8747C46.4232 101.214 45.0109 100.743 43.8497 99.8719C37.0915 94.8032 32.0994 87.7366 29.5806 79.6731C27.0617 71.6096 27.1438 62.958 29.8152 54.9437C32.4866 46.9295 37.612 39.9589 44.4651 35.0194C51.3183 30.0799 59.552 27.4219 67.9997 27.4219Z" fill="url(#paint0_linear_88_226)"/>
<defs>
<linearGradient id="paint0_linear_88_226" x1="0.923828" y1="67.6719" x2="135.076" y2="67.6719" gradientUnits="userSpaceOnUse">
<stop stop-color="#FF7A00"/>
<stop offset="1" stop-color="#FFE600"/>
</linearGradient>
</defs>
</svg>
