<svg width="130" height="130" viewBox="0 0 130 130" fill="none" xmlns="http://www.w3.org/2000/svg">
<path d="M33.8461 6.65555C39.3332 2.4925 46.037 0.249399 52.9246 0.271896C54.8566 0.271896 56.3942 1.27815 57.2877 1.97045C58.2859 2.75935 59.2197 3.7656 60.0569 4.77185C60.6505 5.49284 60.975 6.39782 60.9746 7.33175V36.4969H52.2404C51.2909 33.8114 49.4226 31.5479 46.9657 30.1067C44.5088 28.6654 41.6215 28.1391 38.814 28.6208C36.0066 29.1025 33.4599 30.5611 31.6239 32.7389C29.7879 34.9167 28.7809 37.6735 28.7809 40.5219C28.7809 43.3703 29.7879 46.1271 31.6239 48.3049C33.4599 50.4827 36.0066 51.9413 38.814 52.423C41.6215 52.9047 44.5088 52.3784 46.9657 50.9371C49.4226 49.4959 51.2909 47.2324 52.2404 44.5469H60.9746V120.338C60.975 120.934 60.8431 121.522 60.5883 122.061C60.3335 122.6 59.9623 123.075 59.5015 123.453C55.7824 126.496 50.8075 129.072 44.8746 129.072C35.3273 129.072 28.2192 124.258 23.6226 118.502C20.321 114.401 18.0592 109.562 17.0297 104.399C13.9041 103.56 11.0053 102.033 8.54496 99.9309C4.10136 96.1233 0.599609 89.9489 0.599609 80.7719C0.599609 76.288 0.897458 72.2389 1.56561 68.6969H26.7621C31.8819 68.6969 36.1001 72.5206 36.7441 77.4633C34.0671 78.4322 31.8184 80.3157 30.3952 82.7814C28.972 85.2472 28.4658 88.1364 28.966 90.9391C29.4662 93.7418 30.9406 96.2776 33.1288 98.0988C35.3171 99.92 38.0785 100.909 40.9254 100.892C43.7723 100.875 46.5216 99.8531 48.688 98.0059C50.8543 96.1586 52.2983 93.6054 52.7649 90.7969C53.2315 87.9884 52.6909 85.1054 51.2383 82.6569C49.7857 80.2084 47.5148 78.3518 44.8263 77.4151C44.487 72.8564 42.4365 68.5946 39.0862 65.4846C35.7358 62.3746 31.3334 60.6465 26.7621 60.6469H4.14966C5.38131 58.248 7.03156 56.2194 9.18091 54.7784C9.73003 54.4276 10.2999 54.1104 10.8875 53.8285C8.60131 47.1309 9.19701 39.2902 11.4027 33.132C12.8115 29.1714 15.0494 25.4281 18.1245 22.9326C20.1531 21.2824 22.5681 20.1956 25.2085 19.9863C26.3677 14.4882 29.6199 9.93995 33.8461 6.65555ZM69.0246 100.897H75.0621C79.8658 100.897 84.4728 98.9886 87.8696 95.5919C91.2663 92.1951 93.1746 87.5881 93.1746 82.7844V68.0126C95.8601 67.0632 98.1236 65.1949 99.5648 62.738C101.006 60.2811 101.532 57.3937 101.051 54.5863C100.569 51.7789 99.1104 49.2321 96.9326 47.3962C94.7548 45.5602 91.9981 44.5532 89.1496 44.5532C86.3012 44.5532 83.5444 45.5602 81.3666 47.3962C79.1888 49.2321 77.7302 51.7789 77.2485 54.5863C76.7668 57.3937 77.2931 60.2811 78.7344 62.738C80.1757 65.1949 82.4391 67.0632 85.1246 68.0126V82.7844C85.1246 88.3389 80.6166 92.8469 75.0621 92.8469H69.0246V7.33175C69.0243 6.39782 69.3487 5.49284 69.9423 4.77185C70.7715 3.7656 71.7133 2.75935 72.7115 1.97045C73.597 1.27815 75.1346 0.271896 77.0746 0.271896C83.9622 0.249399 90.666 2.4925 96.1531 6.65555C100.379 9.93995 103.64 14.4882 104.791 19.9863C107.431 20.1876 109.846 21.2824 111.875 22.9326C114.95 25.4281 117.188 29.1714 118.597 33.132C120.802 39.2902 121.398 47.139 119.112 53.8205C119.691 54.0942 120.26 54.4162 120.818 54.7865C123.032 56.2597 124.715 58.3687 125.954 60.8562C128.393 65.7264 129.4 72.5207 129.4 80.7719C129.4 89.9569 125.898 96.1233 121.454 99.9309C118.994 102.033 116.095 103.56 112.97 104.399C112.165 108.891 109.911 114.091 106.377 118.502C101.788 124.258 94.6719 129.072 85.1246 129.072C79.1998 129.072 74.2169 126.496 70.5058 123.453C70.0435 123.076 69.6707 122.601 69.4146 122.062C69.1584 121.523 69.0252 120.934 69.0246 120.338V100.897ZM40.8496 36.4969C39.7821 36.4969 38.7583 36.921 38.0035 37.6758C37.2487 38.4306 36.8246 39.4544 36.8246 40.5219C36.8246 41.5894 37.2487 42.6132 38.0035 43.368C38.7583 44.1228 39.7821 44.5469 40.8496 44.5469C41.9171 44.5469 42.9409 44.1228 43.6957 43.368C44.4506 42.6132 44.8746 41.5894 44.8746 40.5219C44.8746 39.4544 44.4506 38.4306 43.6957 37.6758C42.9409 36.921 41.9171 36.4969 40.8496 36.4969ZM40.8496 84.7969C39.7821 84.7969 38.7583 85.221 38.0035 85.9758C37.2487 86.7306 36.8246 87.7544 36.8246 88.8219C36.8246 89.8894 37.2487 90.9132 38.0035 91.668C38.7583 92.4228 39.7821 92.8469 40.8496 92.8469C41.9171 92.8469 42.9409 92.4228 43.6957 91.668C44.4506 90.9132 44.8746 89.8894 44.8746 88.8219C44.8746 87.7544 44.4506 86.7306 43.6957 85.9758C42.9409 85.221 41.9171 84.7969 40.8496 84.7969ZM89.1496 60.6469C90.2171 60.6469 91.2409 60.2228 91.9957 59.468C92.7506 58.7132 93.1746 57.6894 93.1746 56.6219C93.1746 55.5544 92.7506 54.5306 91.9957 53.7758C91.2409 53.021 90.2171 52.5969 89.1496 52.5969C88.0821 52.5969 87.0583 53.021 86.3035 53.7758C85.5487 54.5306 85.1246 55.5544 85.1246 56.6219C85.1246 57.6894 85.5487 58.7132 86.3035 59.468C87.0583 60.2228 88.0821 60.6469 89.1496 60.6469Z" fill="url(#paint0_linear_88_240)"/>
<defs>
<linearGradient id="paint0_linear_88_240" x1="0.599609" y1="64.6718" x2="129.4" y2="64.6718" gradientUnits="userSpaceOnUse">
<stop stop-color="#FF7A00"/>
<stop offset="1" stop-color="#FFE600"/>
</linearGradient>
</defs>
</svg>
